<svg xmlns="http://www.w3.org/2000/svg" version="1.1" xmlns:xlink="http://www.w3.org/1999/xlink" xmlns:svgjs="http://svgjs.dev/svgjs" width="100%" height="100%" viewBox="0 0 1000 600"><rect width="1000" height="600" x="0" y="0" fill="#ffffff"/><g><circle r="166.66666666666666" cx="309.2945200602213" cy="331.51673757906883" fill="#5d3fd3" transform="matrix(0.8764064994157647,0,0,0.8764064994157647,0,9.456542145395304)"/><path d="M278.4945411407607 371.6945281193013L278.4945411407607 371.6945281193013Q274.39385410776765 371.6945281193013 266.19248004178144 371.38081435721443Q258.01351410165864 371.0671005951275 254.069683949709 371.0671005951275L254.069683949709 371.0671005951275L254.069683949709 267.54155910644965Q265.25133875552075 267.0709884633193 277.5533998545 266.91413158227584L277.5533998545 266.91413158227584Q304.8016809043338 266.91413158227584 317.26059888435657 279.37304956229855Q329.6971087385159 291.8095594164579 329.8539656195593 319.23710547319854L329.8539656195593 319.23710547319854Q330.0108225006028 344.4462470694675 316.85725261881623 358.0703875943844Q303.7036827370297 371.6945281193013 278.4945411407607 371.6945281193013ZM314.5716237807545 321.11938804572L314.5716237807545 321.11938804572Q314.5716237807545 277.31150198287037 281.8109437685365 277.31150198287037L281.8109437685365 277.31150198287037Q277.08282921136964 277.31150198287037 268.4108845022531 277.62521574495725L268.4108845022531 277.62521574495725L268.4108845022531 359.4148751461854L282.90894193584074 359.4148751461854Q298.1912837746455 359.4148751461854 306.68396347685524 347.4265278092931L306.68396347685524 347.4265278092931Q314.5716237807545 336.8723005276551 314.5716237807545 321.11938804572ZM355.8473916210455 274.0175074809579L355.8473916210455 274.0175074809579Q352.06041835013934 274.0175074809579 349.6179326310342 271.48538925839927Q347.19785503779235 268.9756791617041 347.19785503779235 265.1887058907979L347.19785503779235 265.1887058907979Q347.19785503779235 261.40173261989173 349.7075651344876 258.9592469007865Q352.23968335704615 256.5167611816814 355.8473916210455 256.5167611816814L355.8473916210455 256.5167611816814Q359.6343648919517 256.5167611816814 362.0768506110569 259.0488794042399Q364.5193363301621 261.55858950093517 364.5193363301621 265.1887058907979L364.5193363301621 265.1887058907979Q364.5193363301621 268.9756791617041 362.0768506110569 271.48538925839927Q359.6343648919517 274.0175074809579 355.8473916210455 274.0175074809579ZM344.1951661721034 389.0384175375344L344.1951661721034 389.0384175375344Q339.3101947338931 392.64612580153374 332.8566544852482 394.39395961887504L332.8566544852482 394.39395961887504L337.898482804502 406.5167557109475Q361.0460768213428 397.68795412078754 361.20293370238625 381.93504163885234L361.20293370238625 381.93504163885234L361.20293370238625 291.495845654371L348.45271008614 291.495845654371L348.45271008614 374.8540738660337Q348.45271008614 386.03572867184545 344.1951661721034 389.0384175375344Z " fill="#ffffff" transform="matrix(0.8764064994157647,0,0,0.8764064994157647,0,9.456542145395304)"/><path d="M583.4416090109174 370.3847290910787L583.4416090109174 370.3847290910787Q579.3875549020472 370.3847290910787 571.279446684307 370.07458287509957Q563.1934917677081 369.76443665912046 559.2945107668274 369.76443665912046L559.2945107668274 369.76443665912046L559.2945107668274 267.41618538600534Q570.3490080363696 266.9509660620366 582.51117036298 266.7958929540471L582.51117036298 266.7958929540471Q609.4495845508822 266.7958929540471 621.7668199854822 279.11312838864706Q634.0619021189408 291.4082105221057 634.2169752269303 318.5238511191388L634.2169752269303 318.5238511191388Q634.37204833492 343.4463149031766 621.3680605649375 356.91552199712766Q608.3640727949552 370.3847290910787 583.4416090109174 370.3847290910787ZM619.1084238485181 320.3847284150136L619.1084238485181 320.3847284150136Q619.1084238485181 277.07502468364135 586.7202975798398 277.07502468364135L586.7202975798398 277.07502468364135Q582.0459510390112 277.07502468364135 573.4726234973023 277.38517089962045L573.4726234973023 277.38517089962045L573.4726234973023 358.24472006560967L587.8058093357668 358.24472006560967Q602.9143607141789 358.24472006560967 611.310461846757 346.39270395497834L611.310461846757 346.39270395497834Q619.1084238485181 335.9584991173945 619.1084238485181 320.3847284150136ZM659.914804550916 273.81848941586037L659.914804550916 273.81848941586037Q656.170896658025 273.81848941586037 653.756186833616 271.31516638688595Q651.3636303103483 268.83399665905284 651.3636303103483 265.09008876616184L651.3636303103483 265.09008876616184Q651.3636303103483 261.34618087327084 653.8448000381815 258.9314710488618Q656.3481230671559 256.5167612244528 659.914804550916 256.5167612244528L659.914804550916 256.5167612244528Q663.658712443807 256.5167612244528 666.073422268216 259.0200842534273Q668.4881320926249 261.5012539812604 668.4881320926249 265.09008876616184L668.4881320926249 265.09008876616184Q668.4881320926249 268.83399665905284 666.073422268216 271.31516638688595Q663.658712443807 273.81848941586037 659.914804550916 273.81848941586037ZM648.3950879574052 387.53138417449674L648.3950879574052 387.53138417449674Q643.5656683085872 391.09806565825676 637.1855175798735 392.82602314728337L637.1855175798735 392.82602314728337L642.1700103366811 404.8109590647629Q665.054370415713 396.0825584150643 665.2094435237027 380.5087877126834L665.2094435237027 380.5087877126834L665.2094435237027 291.09806430612656L652.6042151742649 291.09806430612656L652.6042151742649 373.50834455201147Q652.6042151742649 384.56284182155355 648.3950879574052 387.53138417449674ZM739.0463962278785 371.78038706298486L739.0463962278785 371.78038706298486Q732.5111723911754 371.78038706298486 729.0774107142634 364.1596514703546L729.0774107142634 364.1596514703546Q724.2479910654454 367.9035593632456 720.8142293885336 369.4542904431413L720.8142293885336 369.4542904431413Q713.8137862278616 372.57790590407404 704.7752393621839 372.57790590407404L704.7752393621839 372.57790590407404Q694.6511807405793 372.57790590407404 688.7362493358344 366.175601874219Q682.8213179310893 359.79545114550535 682.8213179310893 349.82646563189024L682.8213179310893 349.82646563189024Q682.8213179310893 336.88893776533195 690.5971266317091 331.12907946857655L690.5971266317091 331.12907946857655Q695.7366924965063 327.38517157568555 709.9148052269811 324.1286363079046L709.9148052269811 324.1286363079046Q715.3645173077573 322.8880514439881 727.2165334183886 321.7803863869197L727.2165334183886 321.7803863869197L727.2165334183886 311.65632776531504Q727.2165334183886 306.36168879252835 723.073866104953 303.01654032018195Q718.9533520926587 299.67139184783554 713.6587131198721 299.67139184783554L713.6587131198721 299.67139184783554Q704.9303124701735 299.67139184783554 692.3250841207357 309.9505235774298L692.3250841207357 309.9505235774298L685.7677069828911 301.06704981974167Q690.7521997396987 296.54777638690285 698.860307957439 292.64879538602224L698.860307957439 292.64879538602224Q707.7437817151272 288.30674836231435 713.6587131198721 288.4618214703039L713.6587131198721 288.4618214703039Q724.7132103894141 288.4618214703039 732.2010261751961 295.3071915229863Q739.6666886598368 302.15256157566864 739.6666886598368 313.07413903836255L739.6666886598368 313.07413903836255L739.6666886598368 358.0896469576201Q740.4420541997847 361.1911091174115 742.9453772287591 361.34618222540104L742.9453772287591 361.34618222540104Q744.6511814166444 361.5012553333906 749.6356741734519 357.9345738496305L749.6356741734519 357.9345738496305L752.1389972024264 366.175601874219Q746.8443582296397 371.78038706298486 739.0463962278785 371.78038706298486ZM727.2165334183886 349.0511000919424L727.2165334183886 332.85703695760316Q722.5421868775602 332.85703695760316 715.0543710917782 334.4077680374989L715.0543710917782 334.4077680374989Q710.6901707669289 335.1831335774467 705.8607511181109 336.42371844136323L705.8607511181109 336.42371844136323Q694.3410345246001 339.3922607943064 694.3410345246001 349.9815387398798L694.3410345246001 349.9815387398798Q694.3410345246001 355.7413970366352 697.6197230935225 359.1751587135471Q700.8762583613034 362.58676708931756 706.6582699592002 362.58676708931756L706.6582699592002 362.58676708931756Q712.8833475799242 362.58676708931756 719.2634983086378 359.1751587135471L719.2634983086378 359.1751587135471Q727.0614603103991 355.12110460467693 727.2165334183886 349.0511000919424L727.2165334183886 349.0511000919424ZM826.1310230145918 370.07458287509957L813.6587144720022 370.07458287509957L813.6587144720022 318.2137049031597Q813.6587144720022 310.4157429013985 810.0698796871009 305.2761770366014L810.0698796871009 305.2761770366014Q806.0379788793721 299.36124563185643 798.7052362015796 299.36124563185643L798.7052362015796 299.36124563185643Q792.1700123648764 299.36124563185643 785.147415903063 304.50081149665357L785.147415903063 304.50081149665357Q777.2165340944537 310.26066979340897 777.0614609864641 317.7263322780496L777.0614609864641 317.7263322780496L777.0614609864641 370.07458287509957L764.5891524438746 370.07458287509957L764.5891524438746 291.09806430612656L777.0614609864641 291.09806430612656L777.0614609864641 299.9815380638147Q783.2865386071883 294.06660665906975 787.4956658240479 291.87342984607443L787.4956658240479 291.87342984607443Q793.4105972287929 288.4618214703039 800.1008941734857 288.61689457829345L800.1008941734857 288.61689457829345Q811.1775447441692 288.61689457829345 818.6432072288098 296.7914626994579Q826.1310230145918 304.9660308206223 826.1310230145918 316.1756011981539L826.1310230145918 316.1756011981539L826.1310230145918 370.07458287509957ZM917.0924775010444 296.08255706293414L917.0924775010444 306.5167619005179L900.1008955256159 306.05154257654925Q902.6042185545903 311.5012546573255 902.6042185545903 316.6408205221226L902.6042185545903 316.6408205221226Q902.6042185545903 328.6479097407435 894.49611033685 336.57879154935284L894.49611033685 336.57879154935284Q885.3024903631828 345.4622653070409 871.7668233658076 345.4622653070409L871.7668233658076 345.4622653070409Q863.9688613640465 345.4622653070409 861.3326185282237 343.60138801116614L861.3326185282237 343.60138801116614Q855.0853876063584 347.4782157109053 855.0853876063584 352.15256225173374L855.0853876063584 352.15256225173374Q855.0853876063584 356.51676257658306 861.1775454202343 357.77950074164096L861.1775454202343 357.77950074164096Q863.9688613640465 358.3997931735992 876.7513161226152 358.3997931735992L876.7513161226152 358.3997931735992Q893.100452364944 358.3997931735992 899.0153837696889 360.7258897934427L899.0153837696889 360.7258897934427Q909.6046617152623 364.7799439023129 909.6046617152623 378.0276179848503L909.6046617152623 378.0276179848503Q909.6046617152623 391.7183580902151 895.2714758767979 399.67139319996573L895.2714758767979 399.67139319996573Q882.9763937433393 406.5167632526481 868.3330616888958 406.5167632526481L868.3330616888958 406.5167632526481L867.8678423649271 406.5167632526481Q857.7437837433224 406.5167632526481 850.5661141735195 402.30763603578845L850.5661141735195 402.30763603578845Q842.0149399329518 397.0129970630017 842.0149399329518 387.6864572824863L842.0149399329518 387.6864572824863Q842.0149399329518 377.2300991437611 853.069437202494 366.9509674141669L853.069437202494 366.9509674141669Q849.4806024175925 365.7103825502503 846.2240671498116 361.43479542996647Q842.9453785808894 357.13705500854127 842.9453785808894 353.57037352478125L842.9453785808894 353.57037352478125Q842.9453785808894 349.2061731999319 846.8443595817698 345.30719219905137L846.8443595817698 345.30719219905137Q853.2245103104835 338.9270414703377 853.3795834184731 338.77196836234816L853.3795834184731 338.77196836234816Q843.5656710128476 330.35371392862874 843.2555247968685 316.6408205221226L843.2555247968685 316.6408205221226Q843.2555247968685 304.6558846046431 852.4491447705357 295.92748395494453L852.4491447705357 295.92748395494453Q861.0224723122446 287.9966021463352 873.6277006616824 288.1516752543248L873.6277006616824 288.1516752543248Q880.960443339475 288.30674836231435 887.6507402841677 291.7183567380849L887.6507402841677 291.7183567380849Q893.5656716889127 294.84197219901756 896.3791409338662 299.2061725238669L896.3791409338662 299.2061725238669L917.0924775010444 296.08255706293414ZM891.5497212850482 316.33067430614346L891.5497212850482 316.33067430614346Q891.5497212850482 308.86501182150283 886.100009204272 303.10515352474744L886.100009204272 303.10515352474744Q880.8053702314853 297.7883612508194 873.0074082297242 297.7883612508194L873.0074082297242 297.7883612508194Q865.0543731199734 297.7883612508194 860.1584935677314 303.7254459567057Q855.2404607143479 309.64037736145065 855.2404607143479 317.2611129540809L855.2404607143479 317.2611129540809Q855.2404607143479 324.9040018478525 860.0698803631659 330.44232713319417Q864.899300011984 335.9584991173945 872.387115797766 335.9584991173945L872.387115797766 335.9584991173945Q881.1155164474644 335.9584991173945 886.7203016362303 330.1986408206391L886.7203016362303 330.1986408206391Q891.5497212850482 325.05907495584205 891.5497212850482 316.33067430614346ZM897.3095795818037 378.492837308819L897.3095795818037 378.492837308819Q897.3095795818037 368.05863247123517 879.0774127424587 368.2137055792247L879.0774127424587 368.2137055792247Q871.9218964737972 368.2137055792247 863.3485689320883 368.6789249031935L863.3485689320883 368.6789249031935Q859.2945148232182 368.83399801118304 856.1930526634267 374.4387831999489L856.1930526634267 374.4387831999489Q853.3795834184731 379.4232759567564 853.3795834184731 383.6324031736161L853.3795834184731 383.6324031736161Q853.3795834184731 390.16762701031934 859.7597341471867 393.91153490321034L859.7597341471867 393.91153490321034Q865.0543731199734 396.7028508470226 871.9218964737972 396.7028508470226L871.9218964737972 396.7028508470226Q880.960443339475 396.7028508470226 888.5811789321051 392.18357741418373L888.5811789321051 392.18357741418373Q897.3095795818037 386.8889384413971 897.3095795818037 378.492837308819ZM961.4876929883435 371.78038706298486L961.4876929883435 371.78038706298486Q939.9768375800763 371.78038706298486 930.3179982824404 355.7413970366352L930.3179982824404 355.7413970366352Q923.7827744457371 344.6868997670931 923.7827744457371 329.88849460466L923.7827744457371 329.88849460466Q923.7827744457371 309.33023114547154 936.7203023122954 297.7883612508194L936.7203023122954 297.7883612508194Q947.3095802578688 288.4618214703039 961.6427660963332 288.4618214703039L961.6427660963332 288.4618214703039Q975.820878826808 288.4618214703039 985.9449374484127 297.7883612508194L985.9449374484127 297.7883612508194Q998.3950926898608 309.33023114547154 998.3950926898608 329.88849460466L998.3950926898608 329.88849460466Q998.3950926898608 344.2216804431244 991.0845033132098 355.89647014462474L991.0845033132098 355.89647014462474Q981.1155177995946 371.78038706298486 961.4876929883435 371.78038706298486ZM962.418131636281 299.0510994158773L962.418131636281 299.0510994158773Q949.790749985702 299.0510994158773 943.1004530410091 309.0200849294924L943.1004530410091 309.0200849294924Q937.4956678522433 317.57125917006005 937.4956678522433 330.81893325259745L937.4956678522433 330.81893325259745Q937.4956678522433 343.4463149031766 942.7903068250299 351.5322698197755L942.7903068250299 351.5322698197755Q949.0153844457541 361.34618222540104 960.8674005563853 361.5012553333906L960.8674005563853 361.5012553333906Q973.162482689844 361.5012553333906 979.2324872025785 351.3771967117859L979.2324872025785 351.3771967117859Q984.6821992833547 342.9810955792079 984.6821992833547 330.0435677126496L984.6821992833547 330.0435677126496Q984.6821992833547 317.7263322780496 979.6977065265472 309.33023114547154L979.6977065265472 309.33023114547154Q973.9378482297918 299.0510994158773 962.418131636281 299.0510994158773Z " fill="#5d3fd3" transform="matrix(0.8764064994157647,0,0,0.8764064994157647,0,9.456542145395304)"/></g></svg>